<svg width="247" height="304" viewBox="0 0 247 304" fill="none" xmlns="http://www.w3.org/2000/svg">
<path d="M103.765 109.869L104.545 119.409V119.635C103.89 119.557 103.231 119.518 102.572 119.518C97.3925 119.518 89.3117 121.218 83.5787 122.638C79.5539 123.636 76.6523 124.494 76.6523 124.494L75.7865 121.054L72.5027 108.2C69.8429 105.915 65.7869 96.9368 65.7869 96.9368C62.4875 96.4298 58.3847 93.4346 57.4955 89.246C56.6063 85.0574 61.7621 85.4708 61.7621 85.4708L65.1005 83.4194L69.2813 72.008C69.2813 72.008 65.6075 63.5138 72.8381 60.0974C80.0687 56.681 104.654 68.5838 104.654 68.5838L107.314 79.7456C110.731 81.134 107.119 89.4956 107.119 89.4956C107.119 89.4956 107.447 89.6282 107.821 94.5656C108.196 99.503 103.765 109.869 103.765 109.869Z" fill="white"/>
<path d="M95.5518 83.3571C96.6438 87.5067 100.489 90.4629 100.349 91.5315C100.169 92.9043 98.4768 94.7607 96.9402 94.7841" stroke="#263238" stroke-width="0.953494" stroke-linecap="round" stroke-linejoin="round"/>
<path d="M103.126 76.6802C103.126 76.6802 99.7481 73.9268 97.1351 77.4602" stroke="#263238" stroke-width="1.90699" stroke-linecap="round" stroke-linejoin="round"/>
<path d="M83.7582 97.6466C83.7582 97.6466 85.4742 102.124 92.3382 101.976" stroke="#263238" stroke-width="0.953494" stroke-linecap="round" stroke-linejoin="round"/>
<path d="M88.1495 80.1981C85.6847 78.6771 82.2683 78.8097 80.4587 82.1715" stroke="#263238" stroke-width="1.90699" stroke-linecap="round" stroke-linejoin="round"/>
<path d="M87.783 86.7344C88.0092 87.9512 87.6738 89.0744 87.003 89.1602C86.3322 89.246 85.6302 88.3802 85.3962 87.1868C85.1622 85.9934 85.5132 84.8858 86.1762 84.7688C86.8392 84.6518 87.549 85.5254 87.783 86.7344Z" fill="#263238"/>
<path d="M101.846 84.02C102.073 85.2368 101.737 86.36 101.066 86.4458C100.396 86.5316 99.6936 85.6658 99.4596 84.4724C99.2256 83.279 99.5766 82.1714 100.24 82.0466C100.903 81.9218 101.612 82.7876 101.846 84.02Z" fill="#263238"/>
<path d="M65.4672 88.466C65.4672 88.466 59.7576 83.5052 57.948 86.906C56.1384 90.3068 62.0118 98.2004 67.5264 95.7902" stroke="#263238" stroke-width="0.953494" stroke-linecap="round" stroke-linejoin="round"/>
<path d="M103.867 69.902C103.867 69.902 104.303 84.1994 105.887 87.3818C107.47 90.5642 108.827 92.1476 107.158 100.447C105.489 108.746 99.1242 118.441 92.3382 119.089C85.5522 119.736 69.96 109.393 65.5452 96.5" stroke="#263238" stroke-width="0.953494" stroke-linecap="round" stroke-linejoin="round"/>
<path d="M65.6232 89.051C65.6232 89.051 69.765 86.906 69.0162 83.1932C68.2674 79.4804 68.79 79.0202 71.7618 77.1092C74.7336 75.1982 72.8928 71.2514 70.0458 67.367C67.1988 63.4826 72.612 58.8338 77.019 60.7838C81.426 62.7338 106.542 72.6164 113.289 69.6836C120.036 66.7508 118.102 57.3752 109.015 52.1336C109.015 52.1336 104.108 46.2758 105.427 40.886C106.745 35.4962 75.2796 19.2176 60.5298 52.3676C60.5298 52.3676 53.5098 55.1054 52.0668 64.5278C50.6316 73.802 60.7794 85.7984 60.7794 85.7984C60.7794 85.7984 64.3674 87.647 65.6232 89.051Z" fill="#263238"/>
<path d="M69.8663 59.099C72.2063 55.979 76.4651 54.8636 80.2949 55.4096C84.1247 55.9556 87.6035 57.9134 90.8717 59.9804C94.1399 62.0474 97.3535 64.3094 101.012 65.5886C103.067 66.4154 105.325 66.5976 107.486 66.1112C108.329 65.8873 109.116 65.4892 109.796 64.9424C110.476 64.3955 111.033 63.7122 111.433 62.9366" stroke="white" stroke-width="0.953494" stroke-linecap="round" stroke-linejoin="round"/>
<path d="M63.3223 56.5796C60.5143 56.7668 58.0651 58.8728 56.9731 61.4702C55.977 64.1252 55.9083 67.0391 56.7781 69.7382C57.353 71.6394 58.1378 73.4707 59.1181 75.1982" stroke="white" stroke-width="0.953494" stroke-linecap="round" stroke-linejoin="round"/>
<path d="M104.319 108.59C103.908 110.191 103.776 111.85 103.929 113.496C104.016 115.43 104.232 117.356 104.576 119.26" stroke="#263238" stroke-width="0.953494" stroke-linecap="round" stroke-linejoin="round"/>
<path d="M72.4716 107.638C73.821 112.412 75.3186 118.161 76.6992 124.557" stroke="#263238" stroke-width="0.953494" stroke-linecap="round" stroke-linejoin="round"/>
<path d="M104.74 82.2728C104.74 82.2728 106.019 78.794 108.437 80.3384C110.855 81.8828 107.002 89.6984 107.002 89.6984" stroke="#263238" stroke-width="0.953494" stroke-linecap="round" stroke-linejoin="round"/>
<path d="M108.274 67.4996C108.274 67.4996 109.483 77.3354 106.55 80.4398L104.303 81.134L103.118 68.069L108.274 67.4996Z" fill="#263238"/>
<path d="M50.6004 55.16C50.6004 55.16 42.6912 54.6062 35.0472 45.5114C27.4032 36.4166 33.5808 30.0284 37.3872 26.612C41.1936 23.1956 50.5848 13.8278 54.5082 9.45199C58.4316 5.07619 66.294 -0.461811 75.1782 0.988989C84.0624 2.43979 92.7126 7.82179 101.16 10.3022C109.607 12.7826 118.024 22.0022 119.264 28.016C120.504 34.0298 117.836 43.46 114.74 45.7298L109.412 45.566L111.752 53.639C111.752 53.639 80.1 41.12 51.825 64.6214L54.2196 56.213L50.6004 55.16Z" fill="white"/>
<path d="M65.1474 44.4194C65.1474 48.0152 65.202 51.611 65.4282 55.1912L52.2852 64.9568L55.4988 49.1228L65.1474 44.4194Z" fill="#92E3A9"/>
<path opacity="0.6" d="M65.1473 44.4194C65.1473 48.0152 65.3111 52.0088 65.5295 55.589L52.2695 64.949L55.4831 49.115L65.1473 44.4194Z" fill="white"/>
<path d="M66.7074 1.23867C67.3426 1.04226 68.0221 1.04136 68.6578 1.23609C69.2935 1.43083 69.8559 1.8122 70.272 2.33067C71.0838 3.38457 71.4981 4.69093 71.442 6.02007C71.403 10.3491 68.1816 14.0151 64.6482 16.5267C61.1148 19.0383 57.0744 20.8635 53.97 23.8899C52.2002 25.615 50.7936 27.6771 49.8332 29.9544C48.8728 32.2317 48.378 34.6783 48.378 37.1499C48.378 39.6214 48.8728 42.068 49.8332 44.3453C50.7936 46.6227 52.2002 48.6847 53.97 50.4099C54.321 50.7453 54.6798 51.0651 55.023 51.4161L53.9388 55.8465C53.9388 55.8465 39.8988 54.0135 35.0784 45.5115C30.258 37.0095 31.779 33.0315 35.9832 28.0395C40.1874 23.0475 45.6474 20.3331 50.9982 12.7125C56.349 5.09187 66.7074 1.23867 66.7074 1.23867Z" fill="#92E3A9"/>
<path opacity="0.6" d="M66.7074 1.23867C67.3426 1.04226 68.0221 1.04136 68.6578 1.23609C69.2935 1.43083 69.8559 1.8122 70.272 2.33067C71.0838 3.38457 71.4981 4.69093 71.442 6.02007C71.403 10.3491 68.1816 14.0151 64.6482 16.5267C61.1148 19.0383 57.0744 20.8635 53.97 23.8899C52.2002 25.615 50.7936 27.6771 49.8332 29.9544C48.8728 32.2317 48.378 34.6783 48.378 37.1499C48.378 39.6214 48.8728 42.068 49.8332 44.3453C50.7936 46.6227 52.2002 48.6847 53.97 50.4099C54.321 50.7453 54.6798 51.0651 55.023 51.4161L53.9388 55.8465C53.9388 55.8465 39.8988 54.0135 35.0784 45.5115C30.258 37.0095 31.779 33.0315 35.9832 28.0395C40.1874 23.0475 45.6474 20.3331 50.9982 12.7125C56.349 5.09187 66.7074 1.23867 66.7074 1.23867Z" fill="white"/>
<path d="M52.2852 64.9568C52.2852 64.9568 74.0472 42.3992 111.721 54.0368L107.088 41.2526C107.088 41.2526 80.88 34.1 55.4988 49.1228L52.2852 64.9568Z" stroke="#263238" stroke-width="0.953494" stroke-linecap="round" stroke-linejoin="round"/>
<path d="M109.592 48.14C112.267 47.711 117.485 44.7392 118.671 42.2978C119.756 39.7951 120.24 37.0729 120.083 34.3496C120.106 30.4705 119.205 26.6415 117.454 23.18C113.422 15.7154 104.912 12.0572 97.026 8.92942L82.2684 3.07162C79.281 1.88602 76.2312 0.68482 73.0254 0.47422C66.6684 0.0608201 60.6624 3.59422 56.0136 7.97002C51.3648 12.3458 47.6286 17.603 42.9096 21.893C40.6086 23.9834 38.0814 25.793 35.952 28.133C33.8226 30.473 32.052 33.1718 31.7478 36.2684C31.2954 40.7222 33.9162 44.9576 37.1376 48.0698C40.359 51.182 43.5024 54.7778 53.8452 56.0024" stroke="#263238" stroke-width="0.953494" stroke-linecap="round" stroke-linejoin="round"/>
<path d="M94.062 39.56C96.2093 38.2902 98.09 36.6161 99.6 34.6304" stroke="#263238" stroke-width="0.953494" stroke-linecap="round" stroke-linejoin="round"/>
<path d="M62.7372 45.254C60.8672 44.6054 59.159 43.561 57.7295 42.192C56.2999 40.823 55.1825 39.1617 54.4536 37.3214" stroke="#263238" stroke-width="0.953494" stroke-linecap="round" stroke-linejoin="round"/>
<path d="M65.475 7.36936C61.9806 7.11976 58.923 9.70936 56.6844 12.377C54.4458 15.0446 52.449 18.1802 49.3212 19.7636" stroke="#263238" stroke-width="0.953494" stroke-linecap="round" stroke-linejoin="round"/>
<path d="M191.515 160.928L159.317 186.06C159.317 186.06 146.954 145.78 146.228 140.765C144.247 135.937 137.063 129.19 137.063 129.19C137.063 129.19 110.66 127.887 108.757 126.795C106.854 125.703 106.643 119.393 106.643 119.393C105.957 119.393 105.239 119.393 104.514 119.393C103.789 119.393 103.219 119.455 102.556 119.502C96.2291 120.101 89.9656 121.247 83.8362 122.926C78.8208 124.237 75.3108 125.407 75.3108 125.407L77.2608 133.878L75.849 135.999C71.2236 139.455 45.8814 147.855 39.3216 150.819C36.4496 153.09 33.6953 155.506 31.0692 158.058C31.0692 158.058 8.34004 202.658 4.81444 208.102C2.66912 211.515 1.50592 215.452 1.45264 219.483C4.06564 225.06 7.90324 225.426 11.8578 226.791C12.522 227.014 13.1731 227.275 13.8078 227.571C18.4332 229.74 59.2194 226.51 59.2194 226.51C59.2194 226.51 56.2866 241.034 69.6558 235.512C91.0512 226.666 142.196 232.789 142.196 232.789L140.971 200.029L152.562 213.289C152.562 213.289 157.983 216.48 164.504 212.408C174.418 206.004 203.161 170.631 203.161 170.631C200.384 164.071 191.515 160.928 191.515 160.928ZM62.3472 212.002L60.0072 209.662C55.9668 207.213 40.8972 204.374 40.8972 204.374L51.5052 189.047C51.5052 189.047 62.6982 206.363 63.2052 207.829C63.7122 209.296 62.3472 212.002 62.3472 212.002Z" fill="white"/>
<path d="M84.663 246.954L87.0654 298.723C87.0654 298.723 79.203 296.757 77.019 293.481C74.835 290.205 69.96 241.135 69.96 241.135C69.96 241.135 74.64 245.425 84.663 246.954Z" fill="#92E3A9"/>
<path opacity="0.56" d="M84.663 246.954L87.0654 298.723C87.0654 298.723 79.203 296.757 77.019 293.481C74.835 290.205 69.96 241.135 69.96 241.135C69.96 241.135 74.64 245.425 84.663 246.954Z" fill="white"/>
<path d="M63.5328 208.687L51.24 189.546L61.5282 175.935C61.5282 175.935 62.3082 183.634 66.8712 187.206C74.1798 192.908 72.573 210.435 72.573 210.435L63.5328 208.687Z" fill="#92E3A9"/>
<path opacity="0.6" d="M63.5328 208.687L51.24 189.546L61.5282 175.935C61.5282 175.935 62.3082 183.634 66.8712 187.206C74.1798 192.908 72.573 210.435 72.573 210.435L63.5328 208.687Z" fill="white"/>
<path d="M138.288 158.822C138.288 158.822 147.211 198.516 152.383 204.842C157.554 211.168 157.663 186.504 159.488 186.161C161.314 185.818 164.363 200.614 163.186 205.084C163.186 205.084 163.888 207.424 166.477 205.084C169.067 202.744 201.242 172.94 201.242 172.94C201.242 172.94 168.178 214.771 158.724 214.514C150.729 215.622 142.094 201.332 142.094 201.332L138.288 158.822Z" fill="#92E3A9"/>
<path opacity="0.6" d="M138.288 158.822C138.288 158.822 147.211 198.516 152.383 204.842C157.554 211.168 157.663 186.504 159.488 186.161C161.314 185.818 164.363 200.614 163.186 205.084C163.186 205.084 163.888 207.424 166.477 205.084C169.067 202.744 201.242 172.94 201.242 172.94C201.242 172.94 168.178 214.771 158.724 214.514C150.729 215.622 142.094 201.332 142.094 201.332L138.288 158.822Z" fill="white"/>
<path d="M42.4962 201.917L40.515 204.569C40.515 204.569 24.6576 202.58 11.8578 226.76C7.90324 225.395 4.05784 225.028 1.45264 219.451C1.50592 215.421 2.66912 211.484 4.81444 208.071C8.34004 202.611 31.3344 157.519 31.3344 157.519C33.6913 154.939 36.3766 152.678 39.3216 150.796C55.7016 142.138 71.2236 139.439 75.849 135.976L77.2608 133.854L75.3108 125.383C75.3108 125.383 78.8208 124.213 83.8362 122.903L86.4258 133.956C86.8523 135.784 86.6051 137.704 85.7296 139.365C84.8542 141.026 83.4093 142.315 81.66 142.996L44.22 157.434C41.8036 158.361 39.8259 160.166 38.682 162.488L18.1836 203.89C18.597 203.524 26.748 195.232 42.4962 201.917Z" fill="#92E3A9"/>
<path opacity="0.6" d="M42.4962 201.917L40.515 204.569C40.515 204.569 24.6576 202.58 11.8578 226.76C7.90324 225.395 4.05784 225.028 1.45264 219.451C1.50592 215.421 2.66912 211.484 4.81444 208.071C8.34004 202.611 31.3344 157.519 31.3344 157.519C31.3344 157.519 36.2484 153.066 39.3216 150.796C54.8514 142.793 71.2236 139.439 75.849 135.976L77.2608 133.854L75.3108 125.383C75.3108 125.383 78.8208 124.213 83.8362 122.903L86.4258 133.956C86.8523 135.784 86.6051 137.704 85.7296 139.365C84.8542 141.026 83.4093 142.315 81.66 142.996L44.22 157.434C41.8036 158.361 39.8259 160.166 38.682 162.488L18.1836 203.89C18.597 203.524 26.748 195.232 42.4962 201.917Z" fill="white"/>
<path d="M194.76 158.939L204.635 144.985C204.635 144.985 211.608 140.305 214.135 139.088C216.662 137.871 217.029 135.477 218.23 136.319C219.431 137.161 218.347 142.099 215.82 143.659C213.293 145.219 210.407 146.779 210.766 147.871C211.124 148.963 225.812 147.629 225.812 147.629C225.812 147.629 244.532 147.379 244.805 148.83C245.078 150.281 233.152 152.442 233.152 152.442C233.152 152.442 245.967 152.301 245.998 153.034C246.029 153.768 238.69 156.295 238.69 156.295C238.69 156.295 243.877 156.568 243.627 157.691C243.377 158.814 238.089 160.265 238.089 160.265C238.089 160.265 227.255 166.887 224.829 167.971C222.403 169.056 205.937 167.004 205.937 167.004L203.122 170.647C203.122 170.647 198.356 163.876 193.301 160.99L194.76 158.939Z" fill="white"/>
<path d="M158.412 201.862C159.1 196.704 159.433 191.505 159.41 186.301" stroke="#263238" stroke-width="0.953494" stroke-linecap="round" stroke-linejoin="round"/>
<path d="M104.561 119.471C105.341 119.471 106.175 119.424 107.002 119.416L107.782 124.447C107.907 125.255 108.315 125.992 108.934 126.525C109.553 127.058 110.342 127.353 111.16 127.357L136.549 129.081C138.413 129.081 145.487 138.76 146.689 142.411L159.488 186.2L191.523 160.764C191.523 160.764 197.763 161.614 203.168 170.67C203.168 170.67 182.545 198.118 163.825 212.79C161.087 214.927 154.957 215.403 152.515 212.938C148.397 208.789 144.668 205.076 141.79 201.238" stroke="#263238" stroke-width="0.953494" stroke-linecap="round" stroke-linejoin="round"/>
<path d="M56.5752 188.493L62.9946 184.351" stroke="#263238" stroke-width="0.953494" stroke-linecap="round" stroke-linejoin="round"/>
<path d="M58.9542 189.889C60.6529 189.341 62.4363 189.103 64.2192 189.187" stroke="#263238" stroke-width="0.953494" stroke-linecap="round" stroke-linejoin="round"/>
<path d="M51.5208 189.429C55.4213 194.868 59.0351 200.508 62.3472 206.324C63.0792 207.627 63.3015 209.156 62.9712 210.614L47.3712 279.55" stroke="#263238" stroke-width="0.953494" stroke-linecap="round" stroke-linejoin="round"/>
<path d="M136.564 148.05L141.938 199.967C142.297 211.62 143.163 218.999 143.678 233.601" stroke="#263238" stroke-width="0.953494" stroke-linecap="round" stroke-linejoin="round"/>
<path d="M76.6134 135.601L83.8362 181.887L93.5082 178.657C100.166 176.435 107.173 175.444 114.186 175.732L124.061 176.146L112.158 126.92H116.674L142.094 201.332L143.654 234.334C143.654 234.334 96.3474 223.952 69.843 237.953L71.9178 258.233C71.9178 258.233 73.1814 263.787 74.5152 279.956L53.4552 279.574H47.3712L62.7372 212.127C62.7372 212.127 75.9972 213.102 75.615 202.432C75.2328 191.761 71.5668 138.144 71.5668 138.144L76.6134 135.601Z" fill="#263238"/>
<path d="M95.8638 135.165C95.8638 135.6 95.7348 136.025 95.4931 136.387C95.2514 136.748 94.9079 137.03 94.5059 137.197C94.104 137.363 93.6618 137.407 93.2351 137.322C92.8084 137.237 92.4165 137.028 92.1089 136.72C91.8012 136.412 91.5917 136.02 91.5069 135.594C91.422 135.167 91.4655 134.725 91.632 134.323C91.7985 133.921 92.0804 133.577 92.4422 133.336C92.8039 133.094 93.2292 132.965 93.6642 132.965C94.2476 132.965 94.8071 133.197 95.2196 133.609C95.6321 134.022 95.8638 134.581 95.8638 135.165Z" fill="#263238"/>
<path d="M96.1758 148.05C97.3906 148.05 98.3754 147.065 98.3754 145.851C98.3754 144.636 97.3906 143.651 96.1758 143.651C94.961 143.651 93.9762 144.636 93.9762 145.851C93.9762 147.065 94.961 148.05 96.1758 148.05Z" fill="#263238"/>
<path d="M109.927 204.616C117.878 203.259 125.876 202.203 133.92 201.449" stroke="white" stroke-width="0.953494" stroke-linecap="round" stroke-linejoin="round"/>
<path d="M96.1836 207.26C99.4492 206.568 102.728 205.926 106.019 205.333" stroke="white" stroke-width="0.953494" stroke-linecap="round" stroke-linejoin="round"/>
<path d="M133.92 204.304C127.451 206.904 120.933 209.371 114.365 211.706" stroke="white" stroke-width="0.953494" stroke-linecap="round" stroke-linejoin="round"/>
<path d="M132.407 149.08C133.079 153.304 134.051 157.474 135.316 161.56" stroke="#263238" stroke-width="0.953494" stroke-linecap="round" stroke-linejoin="round"/>
<path d="M225.96 153.596C225.96 153.596 244.68 150.476 244.813 148.83C244.945 147.184 231.334 148.05 228.128 147.769C224.923 147.489 211.491 149.212 211.046 148.37C210.602 147.528 211.694 147.333 214.65 144.868C217.606 142.403 219.782 138.051 218.987 136.67C218.191 135.289 215.555 138.355 213.527 139.478C211.897 140.391 205.727 143.885 204.611 145.414C203.496 146.943 196.078 157.176 193.27 161.076" stroke="#263238" stroke-width="0.953494" stroke-linecap="round" stroke-linejoin="round"/>
<path d="M226.389 153.44C226.389 153.44 246.107 151.63 246.029 153.066C245.905 155.46 232.684 157.348 227.27 157.746" stroke="#263238" stroke-width="0.953494" stroke-linecap="round" stroke-linejoin="round"/>
<path d="M227.146 157.816C227.146 157.816 243.908 155.476 243.658 157.691C243.409 159.906 224.353 163.518 224.353 163.518" stroke="#263238" stroke-width="0.953494" stroke-linecap="round" stroke-linejoin="round"/>
<path d="M202.474 171.536C204.354 168.837 205.594 166.981 205.594 166.981C205.594 166.981 221.74 168.751 224.057 168.307C226.373 167.862 237.27 160.881 237.27 160.881" stroke="#263238" stroke-width="0.953494" stroke-linecap="round" stroke-linejoin="round"/>
<path d="M209.58 153.502C211.37 153.721 213.071 154.407 214.511 155.491C215.951 156.576 217.081 158.02 217.786 159.68" stroke="#263238" stroke-width="0.953494" stroke-linecap="round" stroke-linejoin="round"/>
<path d="M162 187.877C163.817 190.662 164.02 194.164 164.168 197.487" stroke="#263238" stroke-width="0.953494" stroke-linecap="round" stroke-linejoin="round"/>
<path d="M69.96 238.873L75.7398 288.208C75.7398 288.208 75.4668 293.403 79.827 296.008C84.1872 298.614 103.297 302.857 113.968 302.194C124.638 301.531 138.148 300.86 143.077 297.077C148.007 293.294 146.852 283.076 146.852 283.076L150.409 252.188C150.409 252.188 153.646 240.394 149.746 236.853C142.617 230.426 82.5336 225.543 69.96 238.873Z" fill="white"/>
<path d="M69.96 241.135C72.2817 243.148 74.9925 244.661 77.9238 245.581C82.6038 246.985 140.199 245.332 147.344 243.936C154.489 242.539 151.899 236.689 147.921 235.051C143.943 233.413 106.994 228.031 90.6768 231.744C76.2 235.036 67.152 235.285 69.96 241.135Z" fill="#92E3A9"/>
<path opacity="0.6" d="M69.96 241.135C72.2817 243.148 74.9925 244.661 77.9238 245.581C82.6038 246.985 140.199 245.332 147.344 243.936C154.489 242.539 151.899 236.689 147.921 235.051C143.943 233.413 111.355 228.679 91.6986 231.37C77.175 234.646 67.152 235.285 69.96 241.135Z" fill="white"/>
<path d="M151.938 239.716C151.938 241.276 150.277 242.68 147.336 243.936C140.464 246.9 126.619 248.912 110.676 248.912C95.4503 248.912 82.1435 247.079 74.9987 244.341C71.4497 242.984 69.4139 241.408 69.4139 239.716C69.4139 234.63 87.8921 230.512 110.676 230.512C133.46 230.512 151.938 234.63 151.938 239.716Z" stroke="#263238" stroke-width="0.953494" stroke-linecap="round" stroke-linejoin="round"/>
<path d="M147.336 243.92C140.464 246.884 126.619 248.896 110.676 248.896C95.4504 248.896 82.1436 247.063 74.9988 244.326C80.3418 240.987 94.6704 238.585 111.511 238.585C127.68 238.6 141.525 240.8 147.336 243.92Z" fill="#263238"/>
<path d="M69.3984 239.716L75.849 290.626C75.9923 291.79 76.4318 292.897 77.1256 293.843C77.8194 294.788 78.7442 295.539 79.8114 296.024C87.9312 299.69 109.74 307.045 140.862 298.426C142.171 298.055 143.339 297.303 144.218 296.265C145.098 295.228 145.648 293.952 145.799 292.6L147.773 275.635L147.968 273.903L149.567 260.206L149.918 257.18L151.938 239.716" stroke="#263238" stroke-width="0.953494" stroke-linecap="round" stroke-linejoin="round"/>
<path d="M103.555 302.319C102.502 300.974 101.781 299.401 101.452 297.725C101.123 296.05 101.194 294.321 101.659 292.678C101.659 292.678 96.9089 295.057 96.7685 299.245C96.7685 299.245 89.7485 297.295 90.6143 287.093C90.6143 287.093 86.7143 293.38 90.2009 300.228C93.6875 307.077 103.555 302.319 103.555 302.319Z" fill="#263238"/>
<path d="M121.752 302.35C125.18 298.849 127.422 294.362 128.164 289.519C129.142 292.966 129.085 296.626 128 300.041C129.506 299.369 130.829 298.347 131.859 297.059C132.889 295.771 133.596 294.256 133.92 292.639C133.92 292.639 134.911 298.879 131.947 302.35C128.983 305.821 121.752 302.35 121.752 302.35Z" fill="#263238"/>
<path d="M163.849 261.86C161.992 268.35 155.347 275.416 147.773 275.619L147.968 273.888C154.465 273.552 160.526 267.234 162.187 261.408C162.593 259.988 163.271 256.509 160.822 254.934C160.225 254.517 159.547 254.232 158.831 254.098C158.116 253.963 157.38 253.982 156.673 254.154C152.975 255.058 150.222 259.746 150.199 259.793C150.134 259.908 150.043 260.006 149.933 260.08C149.824 260.153 149.698 260.199 149.567 260.214L149.918 257.188C151.197 255.519 153.443 253.171 156.259 252.508C157.195 252.284 158.168 252.258 159.115 252.431C160.062 252.605 160.962 252.973 161.758 253.514C164.168 255.027 164.925 258.093 163.849 261.86Z" fill="#263238"/>
<path d="M104.452 242.493C108.679 244.887 113.89 245.02 118.616 243.904C120.283 243.581 121.872 242.94 123.296 242.017" stroke="white" stroke-width="0.953494" stroke-linecap="round" stroke-linejoin="round"/>
<path d="M129.466 242.805C128.156 244.13 126.553 245.13 124.786 245.722" stroke="white" stroke-width="0.953494" stroke-linecap="round" stroke-linejoin="round"/>
<path d="M75.0222 277.101C59.5704 278.934 58.0337 261.08 62.1599 258.264C66.2861 255.448 74.4917 265.105 74.4917 265.105" stroke="white" stroke-width="1.90699" stroke-linecap="round" stroke-linejoin="round"/>
<path d="M115.847 242.009L85.17 186.255C85.17 186.255 81.816 184.234 82.05 188.267C82.284 192.3 110.52 242.36 110.52 242.36L115.847 242.009Z" fill="white" stroke="#263238" stroke-width="0.953494" stroke-linecap="round" stroke-linejoin="round"/>
<path d="M104.194 254.06C113.476 254.629 125.254 254.403 135.332 251.291" stroke="#263238" stroke-width="0.953494" stroke-linecap="round" stroke-linejoin="round"/>
<path d="M87.8531 252.102C87.8531 252.102 90.9731 252.734 95.8949 253.327" stroke="#263238" stroke-width="0.953494" stroke-linecap="round" stroke-linejoin="round"/>
<path d="M58.7124 180.561C52.4206 187.656 46.7107 195.246 41.6382 203.259" stroke="#263238" stroke-width="0.953494" stroke-linecap="round" stroke-linejoin="round"/>
<path d="M38.097 202.954C34.2932 202.074 30.3201 202.26 26.6154 203.493" stroke="#263238" stroke-width="0.953494" stroke-linecap="round" stroke-linejoin="round"/>
<path d="M36.849 156.31C36.849 156.31 50.889 164.352 56.0916 176.707" stroke="#263238" stroke-width="0.953494" stroke-linecap="round" stroke-linejoin="round"/>
<path d="M48.4709 206.55C48.7361 216.628 55.0151 226.932 55.0151 226.932L78.0953 223.406L76.5353 218.937C77.3153 219.319 78.9222 219.186 80.0064 219.444C86.8002 221.004 97.9464 220.715 97.9464 220.715C99.6101 219.323 100.999 217.633 102.041 215.731C103.921 212.408 102.151 211.503 102.151 211.503C104.873 207.689 102.782 204.936 102.782 204.936C106.807 202.635 105.122 201.379 105.122 201.379C102.533 197.331 87.2525 199.078 87.2525 199.078L73.86 210.38L64.7651 208.82L48.4709 206.55Z" fill="white"/>
<path d="M72.6198 210.528L74.6399 209.865L87.2759 199.078C87.2759 199.078 103.781 198.204 104.959 201.168C106.136 204.132 102.704 205.505 99.7403 206.691" stroke="#263238" stroke-width="0.953494" stroke-linecap="round" stroke-linejoin="round"/>
<path d="M102.299 205.638C102.299 205.638 106.378 207.416 100.739 212.385" stroke="#263238" stroke-width="0.953494" stroke-linecap="round" stroke-linejoin="round"/>
<path d="M101.761 211.628C103.555 210.614 104.732 215.185 98.4456 217.384" stroke="#263238" stroke-width="0.953494" stroke-linecap="round" stroke-linejoin="round"/>
<path d="M102.221 216.027L97.611 220.988C97.611 220.988 87.2214 221.893 77.8848 218.882L76.863 219.178" stroke="#263238" stroke-width="0.953494" stroke-linecap="round" stroke-linejoin="round"/>
<path d="M23.4252 212.057C25.6259 209.719 28.2775 207.85 31.2201 206.565C34.1626 205.279 37.3351 204.603 40.5462 204.577C41.8714 204.595 43.1862 204.813 44.4462 205.224C48.9624 206.636 67.5186 208.742 73.1814 210.731L78.1032 223.141C58.6734 228.055 32.7696 228.453 17.2008 227.727C13.2982 227.425 9.49793 226.331 6.03118 224.514C5.02084 223.995 4.12349 223.281 3.3912 222.413C2.6589 221.545 2.10622 220.54 1.76521 219.457C1.42419 218.374 1.30163 217.233 1.40462 216.102C1.50761 214.971 1.83411 213.872 2.36518 212.868L30.3126 159.048C31.0926 157.59 36.5526 152.442 38.058 151.833L52.3008 144.961C53.8253 144.229 55.3875 143.578 56.9808 143.011L72.729 137.731C73.9224 137.247 77.409 134.486 77.0658 133.23L75.1392 125.36C84.5594 121.809 94.499 119.83 104.561 119.502" stroke="#263238" stroke-width="0.953494" stroke-linecap="round" stroke-linejoin="round"/>
</svg>
