<svg width="375" height="304" viewBox="0 0 375 304" fill="none" xmlns="http://www.w3.org/2000/svg">
<g clip-path="url(#clip0_307_1026)">
<path d="M273.553 54.7154C272.438 54.419 271.307 54.1304 270.184 53.873C255.13 50.3474 239.608 49.8872 224.218 50.1758C210.131 50.4332 195.179 53.5298 181.318 50.0588C171.81 47.7188 163.378 42.1028 155.945 35.7146C147.24 28.2188 139.44 19.3892 129.378 13.82C104.285 -0.14202 79.1382 8.53158 60.4182 25.8866L60.3402 25.9646C59.1468 27.0644 58.0002 28.211 56.8536 29.3732C56.8215 29.3869 56.7902 29.4026 56.76 29.42C46.0383 40.5232 37.99 53.9254 33.2274 68.6072C31.0993 75.3997 29.375 82.3121 28.0638 89.3084C28.0555 89.339 28.0555 89.3713 28.0638 89.402C27.7908 90.8216 27.5334 92.2412 27.2838 93.6686C27.2875 93.6997 27.2875 93.7311 27.2838 93.7622C16.98 157.418 41.4018 223.211 101.321 254.38C130.033 269.317 163.94 282.21 197.051 279.777C218.204 278.217 237.658 268.311 254.357 255.714C290.417 228.507 318.614 187.791 326.897 142.972C334.44 101.734 314.745 65.8304 273.553 54.7154Z" fill="#92E3A9"/>
<path opacity="0.5" d="M273.553 54.7154C272.438 54.419 271.307 54.1304 270.184 53.873C255.13 50.3474 239.608 49.8872 224.218 50.1758C210.131 50.4332 195.179 53.5298 181.318 50.0588C171.81 47.7188 163.378 42.1028 155.945 35.7146C147.24 28.2188 139.44 19.3892 129.378 13.82C104.285 -0.14202 79.1382 8.53158 60.4182 25.8866L60.3402 25.9646C59.1468 27.0644 58.0002 28.211 56.8536 29.3732C56.8215 29.3869 56.7902 29.4026 56.76 29.42C46.0383 40.5232 37.99 53.9254 33.2274 68.6072C31.0993 75.3997 29.375 82.3121 28.0638 89.3084C28.0555 89.339 28.0555 89.3713 28.0638 89.402C27.7908 90.8216 27.5334 92.2412 27.2838 93.6686C27.2875 93.6997 27.2875 93.7311 27.2838 93.7622C16.98 157.418 41.4018 223.211 101.321 254.38C130.033 269.317 163.94 282.21 197.051 279.777C218.204 278.217 237.658 268.311 254.357 255.714C290.417 228.507 318.614 187.791 326.897 142.972C334.44 101.734 314.745 65.8304 273.553 54.7154Z" fill="white"/>
<path d="M333.871 279.628H349.65" stroke="#263238" stroke-width="0.953494" stroke-linecap="round" stroke-linejoin="round"/>
<path d="M209.414 279.628H226.925" stroke="#263238" stroke-width="0.953494" stroke-linecap="round" stroke-linejoin="round"/>
<path d="M71.8763 279.628H130.665" stroke="#263238" stroke-width="0.953494" stroke-linecap="round" stroke-linejoin="round"/>
<path d="M49.0536 279.628H62.3604" stroke="#263238" stroke-width="0.953494" stroke-linecap="round" stroke-linejoin="round"/>
<path d="M109.301 99.8228C109.301 99.8228 110.276 106.172 104.894 108.863C104.894 108.863 111.391 110.251 111.992 116.53C111.992 116.53 112.117 107.95 115.845 106.913C115.845 106.913 110.798 106.835 109.301 99.8228Z" fill="white"/>
<path d="M186.607 100.618C186.607 100.618 186.302 104.518 182.707 105.353C182.707 105.353 186.357 107.085 185.827 110.883C185.827 110.883 187.098 105.821 189.454 105.727C189.493 105.727 186.513 104.971 186.607 100.618Z" fill="white"/>
<path d="M190.92 87.3584C190.92 87.3584 190.608 91.2584 187.02 92.093C187.02 92.093 190.662 93.8246 190.14 97.6232C190.14 97.6232 191.411 92.561 193.767 92.4674C193.775 92.4674 190.795 91.7108 190.92 87.3584Z" fill="white"/>
<path d="M99.8004 87.6392C99.8004 87.6392 99.5274 93.4424 95.955 95.2286C97.5006 95.6944 98.8756 96.6033 99.9099 97.8427C100.944 99.0822 101.592 100.598 101.774 102.202C101.774 102.202 100.994 95.7044 105.019 94.3316C103.727 93.6457 102.595 92.6952 101.696 91.542C100.796 90.3888 100.151 89.0589 99.8004 87.6392Z" fill="white"/>
<path d="M278.966 297.1C307.299 297.1 330.267 291.956 330.267 285.611C330.267 279.266 307.299 274.122 278.966 274.122C250.634 274.122 227.666 279.266 227.666 285.611C227.666 291.956 250.634 297.1 278.966 297.1Z" fill="white" stroke="#263238" stroke-width="0.953494" stroke-linecap="round" stroke-linejoin="round"/>
<path d="M279.255 292.709C304.085 292.709 324.214 288.581 324.214 283.489C324.214 278.398 304.085 274.27 279.255 274.27C254.425 274.27 234.296 278.398 234.296 283.489C234.296 288.581 254.425 292.709 279.255 292.709Z" stroke="#263238" stroke-width="0.953494" stroke-linecap="round" stroke-linejoin="round"/>
<path d="M248.741 271.22C246.716 270.243 244.405 270.033 242.236 270.627C241.165 270.941 240.198 271.536 239.435 272.351C238.672 273.166 238.142 274.171 237.899 275.26C237.769 276.308 237.882 277.371 238.231 278.367C238.581 279.363 239.156 280.265 239.912 281.001C241.439 282.461 243.25 283.592 245.231 284.324C250.609 286.581 256.387 287.73 262.22 287.701C267.11 287.701 272.001 286.828 276.868 287.311C281.548 287.764 285.979 289.433 290.596 290.182C295.313 290.946 300.136 290.752 304.777 289.612C309.566 288.435 314.667 285.533 315.502 280.674C315.72 278.994 315.457 277.288 314.743 275.752C314.029 274.216 312.894 272.915 311.469 272C310.027 271.117 308.41 270.559 306.73 270.365C305.05 270.171 303.348 270.346 301.742 270.877C302.593 270.612 301.345 263.077 301.126 262.063C299.566 255.043 291.275 250.074 284.38 250.449C279.746 250.698 275.121 253.842 274.146 258.373C272.586 257.492 270.347 257.827 268.764 258.701C267.977 259.152 267.314 259.791 266.836 260.562C266.358 261.333 266.08 262.21 266.026 263.116C262.976 260.339 258.226 259.692 254.326 260.955C252.655 261.416 251.196 262.445 250.2 263.865C249.598 264.928 249.181 266.086 248.968 267.289C248.679 268.568 249.038 269.956 248.741 271.22Z" fill="#92E3A9"/>
<path d="M248.422 271.36C246.396 270.382 244.084 270.174 241.916 270.775C240.845 271.089 239.878 271.685 239.115 272.5C238.352 273.314 237.822 274.319 237.58 275.409C237.45 276.455 237.566 277.518 237.916 278.512C238.267 279.507 238.843 280.407 239.6 281.142C241.122 282.605 242.931 283.739 244.912 284.472C250.291 286.725 256.068 287.874 261.9 287.85C266.791 287.85 271.689 286.968 276.556 287.452C281.236 287.912 285.659 289.573 290.276 290.33C294.996 291.094 299.821 290.9 304.465 289.761C309.254 288.575 314.355 285.681 315.182 280.814C315.401 279.137 315.14 277.431 314.427 275.897C313.714 274.363 312.58 273.063 311.157 272.148C309.713 271.267 308.094 270.71 306.414 270.514C304.733 270.319 303.03 270.491 301.423 271.017C302.273 270.752 301.033 263.217 300.806 262.203C299.246 255.183 290.955 250.222 284.06 250.589C279.427 250.839 274.801 253.982 273.826 258.514C272.266 257.64 270.028 257.968 268.452 258.849C267.663 259.299 266.999 259.938 266.52 260.709C266.041 261.48 265.761 262.358 265.706 263.264C262.657 260.479 257.945 259.84 254.006 261.096C252.338 261.563 250.88 262.59 249.88 264.005C249.282 265.073 248.865 266.233 248.648 267.437C248.359 268.708 248.718 270.089 248.422 271.36Z" stroke="#263238" stroke-width="0.953494" stroke-linecap="round" stroke-linejoin="round"/>
<path opacity="0.19" d="M248.757 271.407C246.734 270.429 244.424 270.221 242.26 270.822C241.189 271.135 240.223 271.73 239.46 272.543C238.697 273.356 238.166 274.359 237.923 275.448C237.792 276.495 237.906 277.558 238.255 278.554C238.604 279.55 239.179 280.452 239.935 281.188C241.462 282.648 243.273 283.779 245.255 284.511C250.633 286.767 256.411 287.919 262.243 287.896C267.134 287.896 272.024 287.015 276.892 287.499C281.572 287.959 286.002 289.62 290.62 290.377C295.337 291.142 300.16 290.946 304.8 289.8C309.589 288.622 314.69 285.72 315.525 280.861C315.744 279.183 315.481 277.477 314.767 275.942C314.053 274.408 312.917 273.108 311.492 272.195C310.051 271.311 308.434 270.751 306.754 270.556C305.074 270.361 303.372 270.534 301.766 271.064C302.616 270.799 301.368 263.264 301.142 262.25C299.582 255.23 291.298 250.269 284.395 250.636C279.77 250.885 275.144 254.029 274.169 258.561C272.609 257.687 270.371 258.015 268.787 258.896C268.001 259.346 267.339 259.984 266.862 260.753C266.384 261.523 266.105 262.399 266.05 263.303C263 260.526 258.289 259.887 254.35 261.142C252.684 261.612 251.23 262.639 250.231 264.052C249.628 265.117 249.211 266.278 248.999 267.484C248.702 268.755 249.061 270.136 248.757 271.407Z" fill="white"/>
<path opacity="0.2" d="M298.459 257.305C294.816 254.005 288.787 254.497 284.848 257.43C280.909 260.362 278.771 265.191 277.867 270.019C277.064 269.512 276.135 269.24 275.186 269.232C274.237 269.223 273.304 269.48 272.492 269.972C270.88 270.987 269.63 272.486 268.92 274.254C267.523 273.252 265.849 272.708 264.129 272.697C262.409 272.686 260.729 273.208 259.318 274.192C258.35 274.986 257.424 275.83 256.541 276.719C253.917 279.042 250.495 280.259 246.993 280.113C243.491 279.968 240.182 278.472 237.759 275.939C237.759 275.939 234.974 279.894 245.668 284.379C256.362 288.864 263.312 288.279 269.068 287.561C274.825 286.843 282.079 288.138 287.141 289.901C292.203 291.664 306.953 291.781 312.155 286.141C317.358 280.502 316.781 269.512 301.742 270.541C301.774 270.495 301.945 260.456 298.459 257.305Z" fill="black"/>
<path d="M268.483 248.031C266.369 247.063 265.363 244.45 265.691 242.142C266.018 239.833 267.251 237.789 268.655 235.902C270.059 234.014 271.564 232.22 272.453 230.067C275.909 221.643 268.468 211.683 271.783 203.204" stroke="#263238" stroke-width="0.953494" stroke-linecap="round" stroke-linejoin="round"/>
<path d="M298.747 247.383C296.758 246.775 295.627 244.669 295.229 242.625C294.052 236.214 298.466 230.145 299.418 223.726C300.198 218.383 298.583 213.001 296.977 207.837" stroke="#263238" stroke-width="0.953494" stroke-linecap="round" stroke-linejoin="round"/>
<path d="M284.06 245.48C281.946 243.491 282.18 240.02 283.28 237.352C284.38 234.685 286.283 232.329 287.063 229.552C287.51 227.898 287.561 226.162 287.213 224.485C286.864 222.807 286.126 221.235 285.058 219.896" stroke="#263238" stroke-width="0.953494" stroke-linecap="round" stroke-linejoin="round"/>
<path d="M265.394 209.475C265.209 212.412 265.392 215.36 265.94 218.25" stroke="#263238" stroke-width="0.953494" stroke-linecap="round" stroke-linejoin="round"/>
<path d="M265.55 227.407C265.823 230.317 263.897 232.906 262.36 235.395C260.56 238.199 259.343 241.337 258.78 244.622C258.215 247.925 258.746 251.322 260.293 254.294" stroke="#263238" stroke-width="0.953494" stroke-linecap="round" stroke-linejoin="round"/>
<path d="M160.765 109.869L161.545 119.409V119.635C160.89 119.557 160.231 119.518 159.572 119.518C154.393 119.518 146.312 121.218 140.579 122.638C136.554 123.636 133.652 124.494 133.652 124.494L132.787 121.054L129.503 108.2C126.843 105.915 122.787 96.9368 122.787 96.9368C119.488 96.4298 115.385 93.4346 114.496 89.246C113.606 85.0574 118.762 85.4708 118.762 85.4708L122.101 83.4194L126.281 72.008C126.281 72.008 122.608 63.5138 129.838 60.0974C137.069 56.681 161.654 68.5838 161.654 68.5838L164.314 79.7456C167.731 81.134 164.119 89.4956 164.119 89.4956C164.119 89.4956 164.447 89.6282 164.821 94.5656C165.196 99.503 160.765 109.869 160.765 109.869Z" fill="white"/>
<path d="M152.552 83.3571C153.644 87.5067 157.489 90.4629 157.349 91.5315C157.169 92.9043 155.477 94.7607 153.94 94.7841" stroke="#263238" stroke-width="0.953494" stroke-linecap="round" stroke-linejoin="round"/>
<path d="M160.126 76.6802C160.126 76.6802 156.748 73.9268 154.135 77.4602" stroke="#263238" stroke-width="1.90699" stroke-linecap="round" stroke-linejoin="round"/>
<path d="M140.758 97.6466C140.758 97.6466 142.474 102.124 149.338 101.976" stroke="#263238" stroke-width="0.953494" stroke-linecap="round" stroke-linejoin="round"/>
<path d="M145.15 80.1981C142.685 78.6771 139.268 78.8097 137.459 82.1715" stroke="#263238" stroke-width="1.90699" stroke-linecap="round" stroke-linejoin="round"/>
<path d="M144.783 86.7344C145.009 87.9512 144.674 89.0744 144.003 89.1602C143.332 89.246 142.63 88.3802 142.396 87.1868C142.162 85.9934 142.513 84.8858 143.176 84.7688C143.839 84.6518 144.549 85.5254 144.783 86.7344Z" fill="#263238"/>
<path d="M158.846 84.02C159.073 85.2368 158.737 86.36 158.066 86.4458C157.396 86.5316 156.694 85.6658 156.46 84.4724C156.226 83.279 156.577 82.1714 157.24 82.0466C157.903 81.9218 158.612 82.7876 158.846 84.02Z" fill="#263238"/>
<path d="M122.467 88.466C122.467 88.466 116.758 83.5052 114.948 86.906C113.138 90.3068 119.012 98.2004 124.526 95.7902" stroke="#263238" stroke-width="0.953494" stroke-linecap="round" stroke-linejoin="round"/>
<path d="M160.867 69.902C160.867 69.902 161.303 84.1994 162.887 87.3818C164.47 90.5642 165.827 92.1476 164.158 100.447C162.489 108.746 156.124 118.441 149.338 119.089C142.552 119.736 126.96 109.393 122.545 96.5" stroke="#263238" stroke-width="0.953494" stroke-linecap="round" stroke-linejoin="round"/>
<path d="M122.623 89.051C122.623 89.051 126.765 86.906 126.016 83.1932C125.267 79.4804 125.79 79.0202 128.762 77.1092C131.734 75.1982 129.893 71.2514 127.046 67.367C124.199 63.4826 129.612 58.8338 134.019 60.7838C138.426 62.7338 163.542 72.6164 170.289 69.6836C177.036 66.7508 175.102 57.3752 166.015 52.1336C166.015 52.1336 161.108 46.2758 162.427 40.886C163.745 35.4962 132.28 19.2176 117.53 52.3676C117.53 52.3676 110.51 55.1054 109.067 64.5278C107.632 73.802 117.779 85.7984 117.779 85.7984C117.779 85.7984 121.367 87.647 122.623 89.051Z" fill="#263238"/>
<path d="M126.866 59.099C129.206 55.979 133.465 54.8636 137.295 55.4096C141.125 55.9556 144.604 57.9134 147.872 59.9804C151.14 62.0474 154.354 64.3094 158.012 65.5886C160.067 66.4154 162.325 66.5976 164.486 66.1112C165.329 65.8873 166.116 65.4892 166.796 64.9424C167.476 64.3955 168.033 63.7122 168.433 62.9366" stroke="white" stroke-width="0.953494" stroke-linecap="round" stroke-linejoin="round"/>
<path d="M120.322 56.5796C117.514 56.7668 115.065 58.8728 113.973 61.4702C112.977 64.1252 112.908 67.0391 113.778 69.7382C114.353 71.6394 115.138 73.4707 116.118 75.1982" stroke="white" stroke-width="0.953494" stroke-linecap="round" stroke-linejoin="round"/>
<path d="M161.319 108.59C160.908 110.191 160.776 111.85 160.929 113.496C161.016 115.43 161.232 117.356 161.576 119.26" stroke="#263238" stroke-width="0.953494" stroke-linecap="round" stroke-linejoin="round"/>
<path d="M129.472 107.638C130.821 112.412 132.319 118.161 133.699 124.557" stroke="#263238" stroke-width="0.953494" stroke-linecap="round" stroke-linejoin="round"/>
<path d="M161.74 82.2728C161.74 82.2728 163.019 78.794 165.437 80.3384C167.855 81.8828 164.002 89.6984 164.002 89.6984" stroke="#263238" stroke-width="0.953494" stroke-linecap="round" stroke-linejoin="round"/>
<path d="M165.274 67.4996C165.274 67.4996 166.483 77.3354 163.55 80.4398L161.303 81.134L160.118 68.069L165.274 67.4996Z" fill="#263238"/>
<path d="M107.6 55.16C107.6 55.16 99.6912 54.6062 92.0472 45.5114C84.4032 36.4166 90.5808 30.0284 94.3872 26.612C98.1936 23.1956 107.585 13.8278 111.508 9.45199C115.432 5.07619 123.294 -0.461811 132.178 0.988989C141.062 2.43979 149.713 7.82179 158.16 10.3022C166.607 12.7826 175.024 22.0022 176.264 28.016C177.504 34.0298 174.836 43.46 171.74 45.7298L166.412 45.566L168.752 53.639C168.752 53.639 137.1 41.12 108.825 64.6214L111.22 56.213L107.6 55.16Z" fill="white"/>
<path d="M122.147 44.4194C122.147 48.0152 122.202 51.611 122.428 55.1912L109.285 64.9568L112.499 49.1228L122.147 44.4194Z" fill="#92E3A9"/>
<path opacity="0.6" d="M122.147 44.4194C122.147 48.0152 122.311 52.0088 122.53 55.589L109.27 64.949L112.483 49.115L122.147 44.4194Z" fill="white"/>
<path d="M123.707 1.23867C124.343 1.04226 125.022 1.04136 125.658 1.23609C126.293 1.43083 126.856 1.8122 127.272 2.33067C128.084 3.38457 128.498 4.69093 128.442 6.02007C128.403 10.3491 125.182 14.0151 121.648 16.5267C118.115 19.0383 114.074 20.8635 110.97 23.8899C109.2 25.615 107.794 27.6771 106.833 29.9544C105.873 32.2317 105.378 34.6783 105.378 37.1499C105.378 39.6214 105.873 42.068 106.833 44.3453C107.794 46.6227 109.2 48.6847 110.97 50.4099C111.321 50.7453 111.68 51.0651 112.023 51.4161L110.939 55.8465C110.939 55.8465 96.8988 54.0135 92.0784 45.5115C87.258 37.0095 88.779 33.0315 92.9832 28.0395C97.1874 23.0475 102.647 20.3331 107.998 12.7125C113.349 5.09187 123.707 1.23867 123.707 1.23867Z" fill="#92E3A9"/>
<path opacity="0.6" d="M123.707 1.23867C124.343 1.04226 125.022 1.04136 125.658 1.23609C126.293 1.43083 126.856 1.8122 127.272 2.33067C128.084 3.38457 128.498 4.69093 128.442 6.02007C128.403 10.3491 125.182 14.0151 121.648 16.5267C118.115 19.0383 114.074 20.8635 110.97 23.8899C109.2 25.615 107.794 27.6771 106.833 29.9544C105.873 32.2317 105.378 34.6783 105.378 37.1499C105.378 39.6214 105.873 42.068 106.833 44.3453C107.794 46.6227 109.2 48.6847 110.97 50.4099C111.321 50.7453 111.68 51.0651 112.023 51.4161L110.939 55.8465C110.939 55.8465 96.8988 54.0135 92.0784 45.5115C87.258 37.0095 88.779 33.0315 92.9832 28.0395C97.1874 23.0475 102.647 20.3331 107.998 12.7125C113.349 5.09187 123.707 1.23867 123.707 1.23867Z" fill="white"/>
<path d="M109.285 64.9568C109.285 64.9568 131.047 42.3992 168.721 54.0368L164.088 41.2526C164.088 41.2526 137.88 34.1 112.499 49.1228L109.285 64.9568Z" stroke="#263238" stroke-width="0.953494" stroke-linecap="round" stroke-linejoin="round"/>
<path d="M166.592 48.14C169.267 47.711 174.485 44.7392 175.671 42.2978C176.756 39.7951 177.24 37.0729 177.083 34.3496C177.106 30.4705 176.205 26.6415 174.454 23.18C170.422 15.7154 161.912 12.0572 154.026 8.92942L139.268 3.07162C136.281 1.88602 133.231 0.68482 130.025 0.47422C123.668 0.0608201 117.662 3.59422 113.014 7.97002C108.365 12.3458 104.629 17.603 99.9096 21.893C97.6086 23.9834 95.0814 25.793 92.952 28.133C90.8226 30.473 89.052 33.1718 88.7478 36.2684C88.2954 40.7222 90.9162 44.9576 94.1376 48.0698C97.359 51.182 100.502 54.7778 110.845 56.0024" stroke="#263238" stroke-width="0.953494" stroke-linecap="round" stroke-linejoin="round"/>
<path d="M151.062 39.56C153.209 38.2902 155.09 36.6161 156.6 34.6304" stroke="#263238" stroke-width="0.953494" stroke-linecap="round" stroke-linejoin="round"/>
<path d="M119.737 45.254C117.867 44.6054 116.159 43.561 114.729 42.192C113.3 40.823 112.183 39.1617 111.454 37.3214" stroke="#263238" stroke-width="0.953494" stroke-linecap="round" stroke-linejoin="round"/>
<path d="M122.475 7.36936C118.981 7.11976 115.923 9.70936 113.684 12.377C111.446 15.0446 109.449 18.1802 106.321 19.7636" stroke="#263238" stroke-width="0.953494" stroke-linecap="round" stroke-linejoin="round"/>
<path d="M248.515 160.928L216.317 186.06C216.317 186.06 203.954 145.78 203.228 140.765C201.247 135.937 194.063 129.19 194.063 129.19C194.063 129.19 167.66 127.887 165.757 126.795C163.854 125.703 163.643 119.393 163.643 119.393C162.957 119.393 162.239 119.393 161.514 119.393C160.789 119.393 160.219 119.455 159.556 119.502C153.229 120.101 146.966 121.247 140.836 122.926C135.821 124.237 132.311 125.407 132.311 125.407L134.261 133.878L132.849 135.999C128.224 139.455 102.881 147.855 96.3216 150.819C93.4496 153.09 90.6953 155.506 88.0692 158.058C88.0692 158.058 65.34 202.658 61.8144 208.102C59.6691 211.515 58.5059 215.452 58.4526 219.483C61.0656 225.06 64.9032 225.426 68.8578 226.791C69.522 227.014 70.1731 227.275 70.8078 227.571C75.4332 229.74 116.219 226.51 116.219 226.51C116.219 226.51 113.287 241.034 126.656 235.512C148.051 226.666 199.196 232.789 199.196 232.789L197.971 200.029L209.562 213.289C209.562 213.289 214.983 216.48 221.504 212.408C231.418 206.004 260.161 170.631 260.161 170.631C257.384 164.071 248.515 160.928 248.515 160.928ZM119.347 212.002L117.007 209.662C112.967 207.213 97.8972 204.374 97.8972 204.374L108.505 189.047C108.505 189.047 119.698 206.363 120.205 207.829C120.712 209.296 119.347 212.002 119.347 212.002Z" fill="white"/>
<path d="M141.663 246.954L144.065 298.723C144.065 298.723 136.203 296.757 134.019 293.481C131.835 290.205 126.96 241.135 126.96 241.135C126.96 241.135 131.64 245.425 141.663 246.954Z" fill="#92E3A9"/>
<path opacity="0.56" d="M141.663 246.954L144.065 298.723C144.065 298.723 136.203 296.757 134.019 293.481C131.835 290.205 126.96 241.135 126.96 241.135C126.96 241.135 131.64 245.425 141.663 246.954Z" fill="white"/>
<path d="M120.533 208.687L108.24 189.546L118.528 175.935C118.528 175.935 119.308 183.634 123.871 187.206C131.18 192.908 129.573 210.435 129.573 210.435L120.533 208.687Z" fill="#92E3A9"/>
<path opacity="0.6" d="M120.533 208.687L108.24 189.546L118.528 175.935C118.528 175.935 119.308 183.634 123.871 187.206C131.18 192.908 129.573 210.435 129.573 210.435L120.533 208.687Z" fill="white"/>
<path d="M195.288 158.822C195.288 158.822 204.211 198.516 209.383 204.842C214.554 211.168 214.663 186.504 216.488 186.161C218.314 185.818 221.363 200.614 220.186 205.084C220.186 205.084 220.888 207.424 223.477 205.084C226.067 202.744 258.242 172.94 258.242 172.94C258.242 172.94 225.178 214.771 215.724 214.514C207.729 215.622 199.094 201.332 199.094 201.332L195.288 158.822Z" fill="#92E3A9"/>
<path opacity="0.6" d="M195.288 158.822C195.288 158.822 204.211 198.516 209.383 204.842C214.554 211.168 214.663 186.504 216.488 186.161C218.314 185.818 221.363 200.614 220.186 205.084C220.186 205.084 220.888 207.424 223.477 205.084C226.067 202.744 258.242 172.94 258.242 172.94C258.242 172.94 225.178 214.771 215.724 214.514C207.729 215.622 199.094 201.332 199.094 201.332L195.288 158.822Z" fill="white"/>
<path d="M99.4962 201.917L97.515 204.569C97.515 204.569 81.6576 202.58 68.8578 226.76C64.9032 225.395 61.0578 225.028 58.4526 219.451C58.5059 215.421 59.6691 211.484 61.8144 208.071C65.34 202.611 88.3344 157.519 88.3344 157.519C90.6913 154.939 93.3766 152.678 96.3216 150.796C112.702 142.138 128.224 139.439 132.849 135.976L134.261 133.854L132.311 125.383C132.311 125.383 135.821 124.213 140.836 122.903L143.426 133.956C143.852 135.784 143.605 137.704 142.73 139.365C141.854 141.026 140.409 142.315 138.66 142.996L101.22 157.434C98.8036 158.361 96.8259 160.166 95.682 162.488L75.1836 203.89C75.597 203.524 83.748 195.232 99.4962 201.917Z" fill="#92E3A9"/>
<path opacity="0.6" d="M99.4962 201.917L97.515 204.569C97.515 204.569 81.6576 202.58 68.8578 226.76C64.9032 225.395 61.0578 225.028 58.4526 219.451C58.5059 215.421 59.6691 211.484 61.8144 208.071C65.34 202.611 88.3344 157.519 88.3344 157.519C88.3344 157.519 93.2484 153.066 96.3216 150.796C111.851 142.793 128.224 139.439 132.849 135.976L134.261 133.854L132.311 125.383C132.311 125.383 135.821 124.213 140.836 122.903L143.426 133.956C143.852 135.784 143.605 137.704 142.73 139.365C141.854 141.026 140.409 142.315 138.66 142.996L101.22 157.434C98.8036 158.361 96.8259 160.166 95.682 162.488L75.1836 203.89C75.597 203.524 83.748 195.232 99.4962 201.917Z" fill="white"/>
<path d="M251.76 158.939L261.635 144.985C261.635 144.985 268.608 140.305 271.135 139.088C273.662 137.871 274.029 135.477 275.23 136.319C276.431 137.161 275.347 142.099 272.82 143.659C270.293 145.219 267.407 146.779 267.766 147.871C268.124 148.963 282.812 147.629 282.812 147.629C282.812 147.629 301.532 147.379 301.805 148.83C302.078 150.281 290.152 152.442 290.152 152.442C290.152 152.442 302.967 152.301 302.998 153.034C303.029 153.768 295.69 156.295 295.69 156.295C295.69 156.295 300.877 156.568 300.627 157.691C300.377 158.814 295.089 160.265 295.089 160.265C295.089 160.265 284.255 166.887 281.829 167.971C279.403 169.056 262.937 167.004 262.937 167.004L260.122 170.647C260.122 170.647 255.356 163.876 250.301 160.99L251.76 158.939Z" fill="white"/>
<path d="M215.412 201.862C216.1 196.704 216.433 191.505 216.41 186.301" stroke="#263238" stroke-width="0.953494" stroke-linecap="round" stroke-linejoin="round"/>
<path d="M161.561 119.471C162.341 119.471 163.175 119.424 164.002 119.416L164.782 124.447C164.907 125.255 165.315 125.992 165.934 126.525C166.553 127.058 167.342 127.353 168.16 127.357L193.549 129.081C195.413 129.081 202.487 138.76 203.689 142.411L216.488 186.2L248.523 160.764C248.523 160.764 254.763 161.614 260.168 170.67C260.168 170.67 239.545 198.118 220.825 212.79C218.087 214.927 211.957 215.403 209.515 212.938C205.397 208.789 201.668 205.076 198.79 201.238" stroke="#263238" stroke-width="0.953494" stroke-linecap="round" stroke-linejoin="round"/>
<path d="M113.575 188.493L119.995 184.351" stroke="#263238" stroke-width="0.953494" stroke-linecap="round" stroke-linejoin="round"/>
<path d="M115.954 189.889C117.653 189.341 119.436 189.103 121.219 189.187" stroke="#263238" stroke-width="0.953494" stroke-linecap="round" stroke-linejoin="round"/>
<path d="M108.521 189.429C112.421 194.868 116.035 200.508 119.347 206.324C120.079 207.627 120.302 209.156 119.971 210.614L104.371 279.55" stroke="#263238" stroke-width="0.953494" stroke-linecap="round" stroke-linejoin="round"/>
<path d="M193.564 148.05L198.938 199.967C199.297 211.62 200.163 218.999 200.678 233.601" stroke="#263238" stroke-width="0.953494" stroke-linecap="round" stroke-linejoin="round"/>
<path d="M133.613 135.601L140.836 181.887L150.508 178.657C157.166 176.435 164.173 175.444 171.186 175.732L181.061 176.146L169.158 126.92H173.674L199.094 201.332L200.654 234.334C200.654 234.334 153.347 223.952 126.843 237.953L128.918 258.233C128.918 258.233 130.181 263.787 131.515 279.956L110.455 279.574H104.371L119.737 212.127C119.737 212.127 132.997 213.102 132.615 202.432C132.233 191.761 128.567 138.144 128.567 138.144L133.613 135.601Z" fill="#263238"/>
<path d="M152.864 135.165C152.864 135.6 152.735 136.025 152.493 136.387C152.251 136.748 151.908 137.03 151.506 137.197C151.104 137.363 150.662 137.407 150.235 137.322C149.808 137.237 149.416 137.028 149.109 136.72C148.801 136.412 148.592 136.02 148.507 135.594C148.422 135.167 148.466 134.725 148.632 134.323C148.799 133.921 149.08 133.577 149.442 133.336C149.804 133.094 150.229 132.965 150.664 132.965C151.248 132.965 151.807 133.197 152.22 133.609C152.632 134.022 152.864 134.581 152.864 135.165Z" fill="#263238"/>
<path d="M153.176 148.05C154.391 148.05 155.375 147.065 155.375 145.851C155.375 144.636 154.391 143.651 153.176 143.651C151.961 143.651 150.976 144.636 150.976 145.851C150.976 147.065 151.961 148.05 153.176 148.05Z" fill="#263238"/>
<path d="M166.927 204.616C174.878 203.259 182.876 202.203 190.92 201.449" stroke="white" stroke-width="0.953494" stroke-linecap="round" stroke-linejoin="round"/>
<path d="M153.184 207.26C156.449 206.568 159.728 205.926 163.019 205.333" stroke="white" stroke-width="0.953494" stroke-linecap="round" stroke-linejoin="round"/>
<path d="M190.92 204.304C184.451 206.904 177.933 209.371 171.365 211.706" stroke="white" stroke-width="0.953494" stroke-linecap="round" stroke-linejoin="round"/>
<path d="M189.407 149.08C190.079 153.304 191.051 157.474 192.316 161.56" stroke="#263238" stroke-width="0.953494" stroke-linecap="round" stroke-linejoin="round"/>
<path d="M282.96 153.596C282.96 153.596 301.68 150.476 301.813 148.83C301.945 147.184 288.334 148.05 285.128 147.769C281.923 147.489 268.491 149.212 268.046 148.37C267.602 147.528 268.694 147.333 271.65 144.868C274.606 142.403 276.782 138.051 275.987 136.67C275.191 135.289 272.555 138.355 270.527 139.478C268.897 140.391 262.727 143.885 261.611 145.414C260.496 146.943 253.078 157.176 250.27 161.076" stroke="#263238" stroke-width="0.953494" stroke-linecap="round" stroke-linejoin="round"/>
<path d="M283.389 153.44C283.389 153.44 303.107 151.63 303.029 153.066C302.905 155.46 289.684 157.348 284.27 157.746" stroke="#263238" stroke-width="0.953494" stroke-linecap="round" stroke-linejoin="round"/>
<path d="M284.146 157.816C284.146 157.816 300.908 155.476 300.658 157.691C300.409 159.906 281.353 163.518 281.353 163.518" stroke="#263238" stroke-width="0.953494" stroke-linecap="round" stroke-linejoin="round"/>
<path d="M259.474 171.536C261.354 168.837 262.594 166.981 262.594 166.981C262.594 166.981 278.74 168.751 281.057 168.307C283.373 167.862 294.27 160.881 294.27 160.881" stroke="#263238" stroke-width="0.953494" stroke-linecap="round" stroke-linejoin="round"/>
<path d="M266.58 153.502C268.37 153.721 270.071 154.407 271.511 155.491C272.951 156.576 274.081 158.02 274.786 159.68" stroke="#263238" stroke-width="0.953494" stroke-linecap="round" stroke-linejoin="round"/>
<path d="M219 187.877C220.817 190.662 221.02 194.164 221.168 197.487" stroke="#263238" stroke-width="0.953494" stroke-linecap="round" stroke-linejoin="round"/>
<path d="M126.96 238.873L132.74 288.208C132.74 288.208 132.467 293.403 136.827 296.008C141.187 298.614 160.297 302.857 170.968 302.194C181.638 301.531 195.148 300.86 200.077 297.077C205.007 293.294 203.852 283.076 203.852 283.076L207.409 252.188C207.409 252.188 210.646 240.394 206.746 236.853C199.617 230.426 139.534 225.543 126.96 238.873Z" fill="white"/>
<path d="M126.96 241.135C129.282 243.148 131.992 244.661 134.924 245.581C139.604 246.985 197.199 245.332 204.344 243.936C211.489 242.539 208.899 236.689 204.921 235.051C200.943 233.413 163.994 228.031 147.677 231.744C133.2 235.036 124.152 235.285 126.96 241.135Z" fill="#92E3A9"/>
<path opacity="0.6" d="M126.96 241.135C129.282 243.148 131.992 244.661 134.924 245.581C139.604 246.985 197.199 245.332 204.344 243.936C211.489 242.539 208.899 236.689 204.921 235.051C200.943 233.413 168.355 228.679 148.699 231.37C134.175 234.646 124.152 235.285 126.96 241.135Z" fill="white"/>
<path d="M208.938 239.716C208.938 241.276 207.277 242.68 204.336 243.936C197.464 246.9 183.619 248.912 167.676 248.912C152.45 248.912 139.144 247.079 131.999 244.341C128.45 242.984 126.414 241.408 126.414 239.716C126.414 234.63 144.892 230.512 167.676 230.512C190.46 230.512 208.938 234.63 208.938 239.716Z" stroke="#263238" stroke-width="0.953494" stroke-linecap="round" stroke-linejoin="round"/>
<path d="M204.336 243.92C197.464 246.884 183.619 248.896 167.676 248.896C152.45 248.896 139.144 247.063 131.999 244.326C137.342 240.987 151.67 238.585 168.511 238.585C184.68 238.6 198.525 240.8 204.336 243.92Z" fill="#263238"/>
<path d="M126.398 239.716L132.849 290.626C132.992 291.79 133.432 292.897 134.126 293.843C134.819 294.788 135.744 295.539 136.811 296.024C144.931 299.69 166.74 307.045 197.862 298.426C199.171 298.055 200.339 297.303 201.218 296.265C202.098 295.228 202.648 293.952 202.799 292.6L204.773 275.635L204.968 273.903L206.567 260.206L206.918 257.18L208.938 239.716" stroke="#263238" stroke-width="0.953494" stroke-linecap="round" stroke-linejoin="round"/>
<path d="M160.555 302.319C159.502 300.974 158.781 299.401 158.452 297.725C158.123 296.05 158.194 294.321 158.659 292.678C158.659 292.678 153.909 295.057 153.769 299.245C153.769 299.245 146.749 297.295 147.614 287.093C147.614 287.093 143.714 293.38 147.201 300.228C150.688 307.077 160.555 302.319 160.555 302.319Z" fill="#263238"/>
<path d="M178.752 302.35C182.18 298.849 184.422 294.362 185.164 289.519C186.142 292.966 186.085 296.626 185 300.041C186.506 299.369 187.829 298.347 188.859 297.059C189.889 295.771 190.596 294.256 190.92 292.639C190.92 292.639 191.911 298.879 188.947 302.35C185.983 305.821 178.752 302.35 178.752 302.35Z" fill="#263238"/>
<path d="M220.849 261.86C218.992 268.35 212.347 275.416 204.773 275.619L204.968 273.888C211.465 273.552 217.526 267.234 219.187 261.408C219.593 259.988 220.271 256.509 217.822 254.934C217.225 254.517 216.547 254.232 215.831 254.098C215.116 253.963 214.38 253.982 213.673 254.154C209.975 255.058 207.222 259.746 207.199 259.793C207.134 259.908 207.043 260.006 206.933 260.08C206.824 260.153 206.698 260.199 206.567 260.214L206.918 257.188C208.197 255.519 210.443 253.171 213.259 252.508C214.195 252.284 215.168 252.258 216.115 252.431C217.062 252.605 217.962 252.973 218.758 253.514C221.168 255.027 221.925 258.093 220.849 261.86Z" fill="#263238"/>
<path d="M161.452 242.493C165.679 244.887 170.89 245.02 175.616 243.904C177.283 243.581 178.872 242.94 180.296 242.017" stroke="white" stroke-width="0.953494" stroke-linecap="round" stroke-linejoin="round"/>
<path d="M186.466 242.805C185.156 244.13 183.553 245.13 181.786 245.722" stroke="white" stroke-width="0.953494" stroke-linecap="round" stroke-linejoin="round"/>
<path d="M132.022 277.101C116.57 278.934 115.034 261.08 119.16 258.264C123.286 255.448 131.492 265.105 131.492 265.105" stroke="white" stroke-width="1.90699" stroke-linecap="round" stroke-linejoin="round"/>
<path d="M172.847 242.009L142.17 186.255C142.17 186.255 138.816 184.234 139.05 188.267C139.284 192.3 167.52 242.36 167.52 242.36L172.847 242.009Z" fill="white" stroke="#263238" stroke-width="0.953494" stroke-linecap="round" stroke-linejoin="round"/>
<path d="M161.194 254.06C170.476 254.629 182.254 254.403 192.332 251.291" stroke="#263238" stroke-width="0.953494" stroke-linecap="round" stroke-linejoin="round"/>
<path d="M144.853 252.102C144.853 252.102 147.973 252.734 152.895 253.327" stroke="#263238" stroke-width="0.953494" stroke-linecap="round" stroke-linejoin="round"/>
<path d="M115.712 180.561C109.421 187.656 103.711 195.246 98.6382 203.259" stroke="#263238" stroke-width="0.953494" stroke-linecap="round" stroke-linejoin="round"/>
<path d="M95.097 202.954C91.2932 202.074 87.3201 202.26 83.6154 203.493" stroke="#263238" stroke-width="0.953494" stroke-linecap="round" stroke-linejoin="round"/>
<path d="M93.849 156.31C93.849 156.31 107.889 164.352 113.092 176.707" stroke="#263238" stroke-width="0.953494" stroke-linecap="round" stroke-linejoin="round"/>
<path d="M105.471 206.55C105.736 216.628 112.015 226.932 112.015 226.932L135.095 223.406L133.535 218.937C134.315 219.319 135.922 219.186 137.006 219.444C143.8 221.004 154.946 220.715 154.946 220.715C156.61 219.323 157.999 217.633 159.041 215.731C160.921 212.408 159.151 211.503 159.151 211.503C161.873 207.689 159.782 204.936 159.782 204.936C163.807 202.635 162.122 201.379 162.122 201.379C159.533 197.331 144.253 199.078 144.253 199.078L130.86 210.38L121.765 208.82L105.471 206.55Z" fill="white"/>
<path d="M129.62 210.528L131.64 209.865L144.276 199.078C144.276 199.078 160.781 198.204 161.959 201.168C163.136 204.132 159.704 205.505 156.74 206.691" stroke="#263238" stroke-width="0.953494" stroke-linecap="round" stroke-linejoin="round"/>
<path d="M159.299 205.638C159.299 205.638 163.378 207.416 157.739 212.385" stroke="#263238" stroke-width="0.953494" stroke-linecap="round" stroke-linejoin="round"/>
<path d="M158.761 211.628C160.555 210.614 161.732 215.185 155.446 217.384" stroke="#263238" stroke-width="0.953494" stroke-linecap="round" stroke-linejoin="round"/>
<path d="M159.221 216.027L154.611 220.988C154.611 220.988 144.221 221.893 134.885 218.882L133.863 219.178" stroke="#263238" stroke-width="0.953494" stroke-linecap="round" stroke-linejoin="round"/>
<path d="M80.4252 212.057C82.6259 209.719 85.2775 207.85 88.2201 206.565C91.1626 205.279 94.3351 204.603 97.5462 204.577C98.8714 204.595 100.186 204.813 101.446 205.224C105.962 206.636 124.519 208.742 130.181 210.731L135.103 223.141C115.673 228.055 89.7696 228.453 74.2008 227.727C70.2982 227.425 66.4979 226.331 63.0312 224.514C62.0208 223.995 61.1235 223.281 60.3912 222.413C59.6589 221.545 59.1062 220.54 58.7652 219.457C58.4242 218.374 58.3016 217.233 58.4046 216.102C58.5076 214.971 58.8341 213.872 59.3652 212.868L87.3126 159.048C88.0926 157.59 93.5526 152.442 95.058 151.833L109.301 144.961C110.825 144.229 112.388 143.578 113.981 143.011L129.729 137.731C130.922 137.247 134.409 134.486 134.066 133.23L132.139 125.36C141.559 121.809 151.499 119.83 161.561 119.502" stroke="#263238" stroke-width="0.953494" stroke-linecap="round" stroke-linejoin="round"/>
<path d="M54.6384 114.339H37.7826V124.51H54.6384V114.339Z" stroke="#263238" stroke-width="0.953494" stroke-linecap="round" stroke-linejoin="round"/>
<path d="M62.1342 127.45H45.2784V137.622H62.1342V127.45Z" stroke="#263238" stroke-width="0.953494" stroke-linecap="round" stroke-linejoin="round"/>
<path d="M329.815 111.039H312.959V121.211H329.815V111.039Z" stroke="#263238" stroke-width="0.953494" stroke-linecap="round" stroke-linejoin="round"/>
<path d="M319.308 124.151H302.452V134.322H319.308V124.151Z" stroke="#263238" stroke-width="0.953494" stroke-linecap="round" stroke-linejoin="round"/>
<path d="M81.9305 252.984H67.8438V256.774H81.9305V252.984Z" stroke="#263238" stroke-width="0.953494" stroke-linecap="round" stroke-linejoin="round"/>
<path d="M89.9178 240.714H74.1228V250.886H89.9178V240.714Z" stroke="#263238" stroke-width="0.953494" stroke-linecap="round" stroke-linejoin="round"/>
<path d="M213.735 50.3865V7.64246H320.938V83.2323H304.964" stroke="#263238" stroke-width="0.953494" stroke-linecap="round" stroke-linejoin="round"/>
<path d="M213.735 65.9786V59.5592" stroke="#263238" stroke-width="0.953494" stroke-linecap="round" stroke-linejoin="round"/>
<path d="M228.11 83.2323H213.735V70.1907" stroke="#263238" stroke-width="0.953494" stroke-linecap="round" stroke-linejoin="round"/>
<path d="M242.712 15.2865C242.718 15.5839 242.636 15.8765 242.475 16.1268C242.314 16.3772 242.083 16.574 241.809 16.6921C241.536 16.8103 241.234 16.8444 240.942 16.7902C240.649 16.736 240.38 16.5959 240.167 16.3877C239.954 16.1796 239.809 15.9128 239.748 15.6215C239.688 15.3302 239.716 15.0275 239.828 14.752C239.94 14.4765 240.132 14.2408 240.379 14.0748C240.626 13.9088 240.917 13.8201 241.214 13.8201C241.606 13.82 241.983 13.9735 242.263 14.2476C242.543 14.5218 242.704 14.8947 242.712 15.2865Z" stroke="#263238" stroke-width="0.953494" stroke-linecap="round" stroke-linejoin="round"/>
<path d="M267.36 16.9011C268.187 16.9011 268.858 16.2306 268.858 15.4035C268.858 14.5764 268.187 13.9059 267.36 13.9059C266.533 13.9059 265.862 14.5764 265.862 15.4035C265.862 16.2306 266.533 16.9011 267.36 16.9011Z" stroke="#263238" stroke-width="0.953494" stroke-linecap="round" stroke-linejoin="round"/>
<path d="M295.268 15.2865C295.275 15.5839 295.192 15.8765 295.031 16.1268C294.871 16.3772 294.639 16.574 294.366 16.6921C294.093 16.8103 293.791 16.8444 293.498 16.7902C293.206 16.736 292.936 16.5959 292.723 16.3877C292.511 16.1796 292.365 15.9128 292.305 15.6215C292.244 15.3302 292.272 15.0275 292.384 14.752C292.497 14.4765 292.689 14.2408 292.936 14.0748C293.183 13.9088 293.473 13.8201 293.771 13.8201C294.163 13.82 294.539 13.9735 294.819 14.2476C295.099 14.5218 295.26 14.8947 295.268 15.2865Z" stroke="#263238" stroke-width="0.953494" stroke-linecap="round" stroke-linejoin="round"/>
<path d="M245.567 72.6633C245.257 72.6719 244.949 72.6172 244.661 72.5027C244.373 72.3881 244.112 72.2161 243.893 71.9971C243.674 71.778 243.502 71.5166 243.387 71.2289C243.273 70.9411 243.218 70.6329 243.227 70.3233L243.96 25.6293C244.038 24.0069 243.484 22.5873 241.862 22.5873H240.754C239.155 22.5873 237.86 23.3205 237.899 24.9273L238.929 70.3857C238.937 70.69 238.885 70.9929 238.774 71.2765C238.663 71.56 238.497 71.8185 238.284 72.0367C238.072 72.2548 237.818 72.4282 237.538 72.5465C237.257 72.6649 236.956 72.7258 236.651 72.7257H236.495C235.897 72.7276 235.324 72.964 234.898 73.3839C234.472 73.8039 234.228 74.3741 234.218 74.9721L233.929 95.6811C233.923 96.2128 234.023 96.7403 234.223 97.2328C234.424 97.7254 234.72 98.1729 235.096 98.5493C235.472 98.9256 235.918 99.2231 236.411 99.4244C236.903 99.6257 237.43 99.7267 237.962 99.7215L245.325 99.6279C245.854 99.6219 246.376 99.5107 246.862 99.3008C247.347 99.091 247.786 98.7866 248.152 98.4055C248.519 98.0244 248.806 97.5741 248.997 97.0809C249.188 96.5877 249.279 96.0615 249.264 95.5329L248.64 74.8551C248.622 74.2523 248.365 73.6814 247.926 73.2676C247.488 72.8538 246.903 72.6309 246.3 72.6477L245.567 72.6633Z" stroke="#263238" stroke-width="0.953494" stroke-linecap="round" stroke-linejoin="round"/>
<path d="M239.771 25.8476C239.771 25.5853 239.849 25.329 239.995 25.1109C240.141 24.8929 240.348 24.7229 240.59 24.6225C240.832 24.5222 241.099 24.4959 241.356 24.5471C241.613 24.5982 241.85 24.7245 242.035 24.91C242.22 25.0954 242.347 25.3317 242.398 25.5889C242.449 25.8461 242.423 26.1128 242.322 26.355C242.222 26.5973 242.052 26.8044 241.834 26.9501C241.616 27.0958 241.36 27.1736 241.097 27.1736C240.746 27.1736 240.408 27.0339 240.16 26.7852C239.911 26.5366 239.771 26.1993 239.771 25.8476Z" stroke="#263238" stroke-width="0.953494" stroke-linecap="round" stroke-linejoin="round"/>
<path d="M236.347 93.887V82.3508" stroke="#263238" stroke-width="0.953494" stroke-linecap="round" stroke-linejoin="round"/>
<path d="M238.555 93.887V82.3508" stroke="#263238" stroke-width="0.953494" stroke-linecap="round" stroke-linejoin="round"/>
<path d="M241.082 93.6998L241.051 82.3586" stroke="#263238" stroke-width="0.953494" stroke-linecap="round" stroke-linejoin="round"/>
<path d="M243.773 93.8481V82.3119" stroke="#263238" stroke-width="0.953494" stroke-linecap="round" stroke-linejoin="round"/>
<path d="M246.62 93.8168V82.2806" stroke="#263238" stroke-width="0.953494" stroke-linecap="round" stroke-linejoin="round"/>
<path d="M292.515 26.5575C292.51 26.294 292.584 26.035 292.728 25.8137C292.871 25.5925 293.077 25.4189 293.319 25.3151C293.561 25.2114 293.829 25.1822 294.088 25.2314C294.347 25.2805 294.585 25.4057 294.773 25.5909C294.96 25.7762 295.088 26.0131 295.141 26.2715C295.193 26.5299 295.167 26.7979 295.066 27.0414C294.965 27.285 294.794 27.4929 294.574 27.6387C294.355 27.7845 294.097 27.8616 293.833 27.8601C293.487 27.8581 293.155 27.7207 292.909 27.4773C292.662 27.2339 292.521 26.9038 292.515 26.5575Z" stroke="#263238" stroke-width="0.953494" stroke-linecap="round" stroke-linejoin="round"/>
<path d="M294.098 75.5259L296.883 25.9725C296.904 25.5863 296.846 25.1999 296.713 24.8368C296.58 24.4737 296.375 24.1416 296.109 23.8606C295.843 23.5796 295.523 23.3556 295.168 23.2024C294.813 23.0492 294.43 22.97 294.044 22.9695H293.529C293.15 22.9694 292.776 23.0448 292.427 23.1913C292.078 23.3378 291.761 23.5524 291.496 23.8226C291.231 24.0927 291.023 24.4131 290.883 24.7648C290.743 25.1165 290.675 25.4926 290.682 25.8711L291.306 55.3395C291.446 62.0995 291.592 68.8777 291.743 75.6741C291.75 75.9672 291.682 76.2573 291.546 76.5167C291.409 76.7761 291.209 76.9963 290.963 77.1561C289.074 78.4735 287.696 80.4018 287.063 82.6161C286.171 85.5976 285.981 88.7452 286.509 91.8123C287.078 95.1039 289.364 98.6997 292.936 99.1911C296.509 99.6825 298.973 96.5703 299.886 93.5205C300.911 90.2919 301.091 86.8544 300.409 83.5365C300.013 82.024 299.306 80.6107 298.334 79.3869C297.456 78.4314 296.374 77.6873 295.167 77.2107C294.833 77.0793 294.55 76.8453 294.358 76.5425C294.166 76.2397 294.075 75.8837 294.098 75.5259Z" stroke="#263238" stroke-width="0.953494" stroke-linecap="round" stroke-linejoin="round"/>
<path d="M288.545 91.0479V84.4257" stroke="#263238" stroke-width="0.953494" stroke-linecap="round" stroke-linejoin="round"/>
<path d="M297.998 91.0479V84.4257" stroke="#263238" stroke-width="0.953494" stroke-linecap="round" stroke-linejoin="round"/>
<path d="M291.361 92.5766V82.7408" stroke="#263238" stroke-width="0.953494" stroke-linecap="round" stroke-linejoin="round"/>
<path d="M295.838 92.5766V82.7408" stroke="#263238" stroke-width="0.953494" stroke-linecap="round" stroke-linejoin="round"/>
<path d="M293.545 95.7825V81.2277" stroke="#263238" stroke-width="0.953494" stroke-linecap="round" stroke-linejoin="round"/>
<path d="M267.305 27.6807C268.038 27.6807 268.631 27.087 268.631 26.3547C268.631 25.6224 268.038 25.0287 267.305 25.0287C266.573 25.0287 265.979 25.6224 265.979 26.3547C265.979 27.087 266.573 27.6807 267.305 27.6807Z" stroke="#263238" stroke-width="0.953494" stroke-linecap="round" stroke-linejoin="round"/>
<path d="M269.115 69.98L271.198 25.3484C271.21 24.9664 271.146 24.5857 271.008 24.229C270.871 23.8723 270.663 23.5468 270.398 23.2718C270.132 22.9968 269.814 22.778 269.463 22.6282C269.111 22.4785 268.733 22.4009 268.351 22.4H266.393C266.006 22.4005 265.623 22.4798 265.268 22.633C264.913 22.7862 264.593 23.0101 264.328 23.2911C264.062 23.5721 263.856 23.9043 263.723 24.2674C263.59 24.6305 263.532 25.0169 263.554 25.403L265.979 70.3388C266.003 70.6452 265.943 70.9522 265.806 71.227C265.668 71.5019 265.459 71.7341 265.199 71.8988C262.859 73.373 256.37 78.1856 256.214 86.5316C256.019 96.7418 267.555 101.281 274.154 97.4984C280.628 93.8012 285.292 78.521 270.09 71.657C269.774 71.512 269.511 71.2731 269.337 70.9729C269.162 70.6727 269.085 70.326 269.115 69.98Z" stroke="#263238" stroke-width="0.953494" stroke-linecap="round" stroke-linejoin="round"/>
<path d="M268.522 94.5968C268.918 94.5968 269.24 94.2755 269.24 93.8792C269.24 93.4829 268.918 93.1616 268.522 93.1616C268.126 93.1616 267.805 93.4829 267.805 93.8792C267.805 94.2755 268.126 94.5968 268.522 94.5968Z" stroke="#263238" stroke-width="0.953494" stroke-linecap="round" stroke-linejoin="round"/>
<path d="M263.203 92.0775C263.192 91.9764 263.203 91.8743 263.234 91.7777C263.266 91.6811 263.317 91.5922 263.385 91.5167C263.453 91.4413 263.536 91.3809 263.629 91.3396C263.722 91.2983 263.823 91.277 263.924 91.277C264.026 91.277 264.126 91.2983 264.219 91.3396C264.312 91.3809 264.395 91.4413 264.463 91.5167C264.531 91.5922 264.582 91.6811 264.614 91.7777C264.645 91.8743 264.656 91.9764 264.646 92.0775C264.627 92.2559 264.543 92.4211 264.41 92.5412C264.277 92.6613 264.104 92.7278 263.924 92.7278C263.745 92.7278 263.572 92.6613 263.438 92.5412C263.305 92.4211 263.221 92.2559 263.203 92.0775Z" stroke="#263238" stroke-width="0.953494" stroke-linecap="round" stroke-linejoin="round"/>
<path d="M273.202 92.7951C273.599 92.7951 273.92 92.4738 273.92 92.0775C273.92 91.6811 273.599 91.3599 273.202 91.3599C272.806 91.3599 272.485 91.6811 272.485 92.0775C272.485 92.4738 272.806 92.7951 273.202 92.7951Z" stroke="#263238" stroke-width="0.953494" stroke-linecap="round" stroke-linejoin="round"/>
<path d="M268.522 89.9091C268.918 89.9091 269.24 89.5878 269.24 89.1915C269.24 88.7952 268.918 88.4739 268.522 88.4739C268.126 88.4739 267.805 88.7952 267.805 89.1915C267.805 89.5878 268.126 89.9091 268.522 89.9091Z" stroke="#263238" stroke-width="0.953494" stroke-linecap="round" stroke-linejoin="round"/>
<path d="M263.203 87.3897C263.201 87.2459 263.242 87.1049 263.321 86.9846C263.4 86.8643 263.512 86.7701 263.645 86.714C263.777 86.6579 263.923 86.6424 264.065 86.6695C264.206 86.6966 264.336 86.7651 264.438 86.8662C264.54 86.9673 264.61 87.0966 264.639 87.2375C264.667 87.3784 264.654 87.5247 264.599 87.6577C264.544 87.7907 264.451 87.9044 264.332 87.9845C264.212 88.0645 264.072 88.1073 263.928 88.1073C263.737 88.1073 263.554 88.032 263.418 87.8976C263.282 87.7632 263.205 87.5807 263.203 87.3897Z" stroke="#263238" stroke-width="0.953494" stroke-linecap="round" stroke-linejoin="round"/>
<path d="M273.202 88.1072C273.599 88.1072 273.92 87.7859 273.92 87.3896C273.92 86.9933 273.599 86.672 273.202 86.672C272.806 86.672 272.485 86.9933 272.485 87.3896C272.485 87.7859 272.806 88.1072 273.202 88.1072Z" stroke="#263238" stroke-width="0.953494" stroke-linecap="round" stroke-linejoin="round"/>
<path d="M268.522 85.229C268.918 85.229 269.24 84.9077 269.24 84.5114C269.24 84.1151 268.918 83.7938 268.522 83.7938C268.126 83.7938 267.805 84.1151 267.805 84.5114C267.805 84.9077 268.126 85.229 268.522 85.229Z" stroke="#263238" stroke-width="0.953494" stroke-linecap="round" stroke-linejoin="round"/>
<path d="M263.203 82.7097C263.192 82.6087 263.203 82.5065 263.234 82.4099C263.266 82.3133 263.317 82.2244 263.385 82.1489C263.453 82.0735 263.536 82.0131 263.629 81.9718C263.722 81.9305 263.823 81.9092 263.924 81.9092C264.026 81.9092 264.126 81.9305 264.219 81.9718C264.312 82.0131 264.395 82.0735 264.463 82.1489C264.531 82.2244 264.582 82.3133 264.614 82.4099C264.645 82.5065 264.656 82.6087 264.646 82.7097C264.627 82.8881 264.543 83.0533 264.41 83.1734C264.277 83.2935 264.104 83.36 263.924 83.36C263.745 83.36 263.572 83.2935 263.438 83.1734C263.305 83.0533 263.221 82.8881 263.203 82.7097Z" stroke="#263238" stroke-width="0.953494" stroke-linecap="round" stroke-linejoin="round"/>
<path d="M273.202 83.4273C273.599 83.4273 273.92 83.106 273.92 82.7097C273.92 82.3134 273.599 81.9921 273.202 81.9921C272.806 81.9921 272.485 82.3134 272.485 82.7097C272.485 83.106 272.806 83.4273 273.202 83.4273Z" stroke="#263238" stroke-width="0.953494" stroke-linecap="round" stroke-linejoin="round"/>
<path d="M268.522 77.2964C268.918 77.2964 269.24 76.9751 269.24 76.5788C269.24 76.1825 268.918 75.8612 268.522 75.8612C268.126 75.8612 267.805 76.1825 267.805 76.5788C267.805 76.9751 268.126 77.2964 268.522 77.2964Z" stroke="#263238" stroke-width="0.953494" stroke-linecap="round" stroke-linejoin="round"/>
<path d="M263.203 78.3806C263.192 78.4817 263.203 78.5838 263.234 78.6804C263.266 78.777 263.317 78.8659 263.385 78.9414C263.453 79.0169 263.536 79.0772 263.629 79.1185C263.722 79.1598 263.823 79.1811 263.924 79.1811C264.026 79.1811 264.126 79.1598 264.219 79.1185C264.312 79.0772 264.395 79.0169 264.463 78.9414C264.531 78.8659 264.582 78.777 264.614 78.6804C264.645 78.5838 264.656 78.4817 264.646 78.3806C264.627 78.2022 264.543 78.037 264.41 77.9169C264.277 77.7968 264.104 77.7303 263.924 77.7303C263.745 77.7303 263.572 77.7968 263.438 77.9169C263.305 78.037 263.221 78.2022 263.203 78.3806Z" stroke="#263238" stroke-width="0.953494" stroke-linecap="round" stroke-linejoin="round"/>
<path d="M273.202 79.0983C273.599 79.0983 273.92 78.777 273.92 78.3807C273.92 77.9844 273.599 77.6631 273.202 77.6631C272.806 77.6631 272.485 77.9844 272.485 78.3807C272.485 78.777 272.806 79.0983 273.202 79.0983Z" stroke="#263238" stroke-width="0.953494" stroke-linecap="round" stroke-linejoin="round"/>
</g>
<defs>
<clipPath id="clip0_307_1026">
<rect width="375" height="304" fill="white"/>
</clipPath>
</defs>
</svg>
